<?xml version="1.0" standalone="no"?>
<!DOCTYPE svg PUBLIC "-//W3C//DTD SVG 20010904//EN"
 "http://www.w3.org/TR/2001/REC-SVG-20010904/DTD/svg10.dtd">
<svg version="1.0" xmlns="http://www.w3.org/2000/svg"
 width="499.000000pt" height="500.000000pt" viewBox="0 0 499.000000 500.000000"
 preserveAspectRatio="xMidYMid meet">
<metadata>
Created by potrace 1.16, written by Peter Selinger 2001-2019
</metadata>
<g transform="translate(0.000000,500.000000) scale(0.100000,-0.100000)"
fill="#000000" stroke="none">
<path d="M1421 4109 c-12 -10 -48 -27 -79 -39 -89 -33 -157 -77 -203 -128 -53
-61 -114 -165 -129 -222 -7 -25 -18 -57 -26 -71 -7 -14 -11 -35 -8 -47 7 -23
-2 -29 113 69 53 45 163 160 204 214 4 5 29 40 56 76 27 36 67 83 90 104 23
22 41 45 41 51 0 18 -34 13 -59 -7z"/>
<path d="M3516 4122 c-2 -4 17 -30 43 -57 61 -65 161 -191 161 -204 0 -6 9
-15 20 -21 11 -6 20 -16 20 -23 0 -7 9 -18 20 -25 12 -7 18 -18 14 -24 -4 -6
-3 -8 3 -5 5 3 29 -15 54 -40 51 -53 141 -123 157 -123 18 0 15 18 -17 111
-28 84 -58 143 -96 188 -38 46 -120 121 -132 121 -7 0 -13 4 -13 8 0 5 -30 19
-67 32 -38 13 -87 34 -111 47 -48 26 -49 26 -56 15z"/>
<path d="M1886 4035 c-4 -15 -26 -39 -50 -57 -49 -34 -48 -32 -31 -160 6 -44
4 -48 -14 -48 -17 0 -20 -6 -19 -37 1 -21 -2 -47 -6 -58 -6 -16 -6 -17 3 -5 9
13 11 13 11 -2 0 -9 -4 -20 -10 -23 -6 -4 -4 -19 5 -42 21 -49 21 -221 1 -229
-11 -4 -12 -12 -4 -35 6 -17 7 -52 4 -80 -5 -35 -2 -57 9 -78 11 -23 15 -63
15 -160 l0 -130 -42 -3 c-40 -3 -43 -5 -41 -31 1 -17 -2 -25 -9 -21 -6 4 -5
-3 2 -16 11 -21 12 -41 8 -155 -1 -22 0 -51 1 -65 2 -14 1 -51 -2 -83 -6 -57
-5 -59 26 -77 27 -16 32 -25 31 -54 -1 -19 -5 -39 -9 -45 -3 -6 -1 -11 4 -11
7 0 11 -26 11 -65 0 -51 4 -66 18 -73 33 -17 42 -3 42 64 0 82 18 84 22 2 3
-60 4 -63 31 -66 17 -2 27 1 28 10 0 7 1 35 2 62 1 31 7 51 15 54 11 3 13 -8
12 -49 -1 -30 -2 -60 -1 -66 1 -10 39 -13 156 -13 l154 0 15 28 c16 31 90 93
175 148 49 31 55 33 71 19 9 -8 20 -12 23 -8 4 3 7 1 7 -5 0 -5 17 -20 38 -33
66 -40 119 -87 132 -119 l13 -30 156 2 156 3 3 63 c4 82 22 80 22 -3 l0 -65
30 0 30 0 0 65 c0 37 4 65 10 65 6 0 10 -27 10 -60 0 -49 3 -61 20 -70 32 -17
40 -4 40 64 0 34 5 67 12 74 8 8 8 15 -1 26 -8 10 -9 16 -1 21 6 4 8 15 5 26
-5 14 1 24 24 37 l30 17 -1 95 c0 52 -1 106 -1 120 -2 50 1 136 6 172 5 41 -4
48 -56 48 l-32 0 1 133 c0 89 5 140 13 156 17 31 23 191 7 197 -12 5 -13 184
-1 222 5 15 3 22 -6 22 -10 0 -11 3 -3 8 7 4 14 36 15 72 4 61 3 65 -18 68
-18 3 -23 10 -23 31 0 15 4 31 9 37 8 8 15 65 12 101 -1 6 -21 26 -46 44 -31
22 -45 40 -45 56 0 31 -18 29 -22 -3 -2 -16 -14 -32 -33 -42 -34 -19 -65 -50
-66 -66 0 -6 -3 -23 -5 -38 -3 -16 0 -28 6 -28 5 0 10 -7 10 -15 0 -8 4 -15 8
-15 4 0 9 -13 10 -29 2 -24 -2 -30 -20 -33 -21 -3 -23 -8 -21 -53 2 -27 5 -68
9 -90 14 -86 16 -238 3 -245 -20 -13 -18 -148 3 -199 10 -24 18 -59 18 -77 l0
-34 -510 0 -510 0 0 43 c0 23 6 54 14 69 16 30 20 198 5 198 -16 0 -11 188 6
219 14 28 14 29 -8 24 -20 -5 -20 -4 -5 8 16 14 21 41 19 107 -1 25 -5 32 -22
32 -22 0 -22 -1 -4 121 8 50 2 60 -59 102 -16 11 -26 27 -26 42 0 33 -16 32
-24 0z m502 -1129 c17 -6 22 -3 22 9 0 12 -5 15 -17 10 -14 -5 -15 -3 -6 6 22
22 46 2 41 -36 -2 -21 0 -35 7 -35 6 0 10 15 8 38 -1 20 0 30 3 20 8 -25 34
-31 34 -7 0 11 -4 17 -10 14 -5 -3 -10 -1 -10 5 0 7 6 10 13 8 6 -3 13 -21 15
-41 2 -20 7 -37 12 -37 4 0 6 16 3 35 -4 32 -3 35 21 35 15 0 29 -7 33 -15 9
-25 -6 -31 -22 -9 -14 18 -14 18 -15 1 0 -11 9 -21 20 -24 11 -3 21 -10 21
-17 1 -6 5 7 8 28 3 22 12 42 20 44 10 3 12 -1 8 -17 -6 -22 7 -29 17 -8 3 6
5 -3 3 -20 -2 -18 0 -33 4 -33 4 0 9 17 11 37 2 28 8 39 22 41 10 2 23 -2 27
-10 8 -11 10 -11 18 1 15 24 51 4 51 -30 0 -28 -2 -29 -52 -31 -41 -1 -34 -3
32 -8 l85 -6 -65 -4 c-88 -4 -88 -4 -96 -13 -4 -4 31 -7 77 -8 57 -1 76 -4 59
-9 -34 -11 -670 -11 -695 0 -13 5 29 9 113 9 81 1 132 5 132 11 0 6 -8 11 -17
12 -10 1 7 4 37 8 l55 7 -52 1 c-52 2 -53 3 -53 32 0 17 5 30 10 30 6 0 10 -9
10 -20 0 -11 5 -20 11 -20 7 0 9 10 5 28 -5 23 -4 25 6 11 7 -9 23 -19 36 -23z
m542 -371 c0 -24 -2 -25 -70 -25 -52 0 -70 3 -70 13 0 10 -15 14 -52 13 -34
-1 -52 -5 -51 -13 1 -6 -4 -13 -11 -16 -10 -4 -12 1 -8 15 3 15 1 19 -9 16 -8
-3 -13 -14 -13 -26 1 -12 -3 -19 -7 -16 -5 3 -9 14 -9 24 0 14 -7 18 -30 18
-32 -1 -47 -12 -30 -23 14 -9 13 -25 -3 -25 -20 0 -41 -40 -27 -54 8 -8 10 -7
5 7 -4 9 -3 17 2 17 11 0 11 -55 0 -66 -4 -5 -5 0 -1 9 5 15 2 17 -25 12 -19
-3 -31 -1 -31 5 0 6 6 8 13 4 9 -6 9 -4 -1 8 -7 9 -22 15 -34 13 -22 -5 -48
15 -49 37 0 7 -4 4 -9 -7 -7 -16 -9 -17 -9 -3 -1 9 -6 18 -12 20 -12 4 -1 38
13 38 6 0 8 -7 4 -15 -4 -13 -2 -14 14 -5 11 6 25 8 31 4 6 -4 16 0 21 7 7 11
11 11 15 2 7 -18 23 -16 23 2 0 12 -14 14 -72 12 -48 -1 -73 -6 -73 -14 0 -6
-3 -15 -7 -19 -5 -4 -8 1 -8 12 0 18 -7 20 -71 21 -51 0 -72 -3 -76 -13 -8
-22 -129 -19 -137 3 -4 9 -2 19 4 23 6 4 202 7 436 8 l424 1 0 -24z"/>
<path d="M1045 3933 c-62 -16 -174 -122 -206 -194 -16 -37 -25 -46 -44 -46
-21 0 -69 -33 -48 -33 4 0 3 -4 -2 -8 -26 -18 -100 -159 -116 -222 -26 -95
-38 -215 -27 -270 19 -97 52 -226 60 -237 15 -19 48 -136 48 -169 0 -34 22
-59 43 -51 8 3 17 27 20 57 4 34 18 70 39 103 18 28 38 60 44 72 6 11 16 19
23 17 7 -1 10 2 7 7 -4 5 23 51 59 103 36 51 79 121 95 154 26 56 70 199 70
231 0 19 -24 5 -42 -25 -9 -15 -74 -85 -145 -157 -70 -71 -129 -138 -131 -147
-1 -9 -9 -34 -17 -55 l-14 -38 0 65 c1 36 -1 128 -4 205 -3 77 -3 123 -1 102
3 -20 9 -35 14 -32 5 3 6 13 3 22 -4 11 -2 14 5 9 7 -4 11 -41 11 -102 -1 -52
2 -98 6 -102 6 -7 34 21 67 65 7 11 83 79 168 152 120 103 161 144 182 184 15
29 27 60 28 69 0 9 12 30 26 47 14 17 21 31 14 31 -6 0 -8 5 -5 11 4 5 9 23
12 40 7 45 -19 36 -44 -14 -21 -44 -87 -106 -174 -165 -26 -17 -72 -54 -103
-83 -31 -28 -56 -49 -56 -48 0 2 10 38 21 79 11 41 27 104 36 140 20 82 57
156 94 189 45 40 38 57 -16 44z"/>
<path d="M3900 3934 c0 -5 21 -31 46 -59 28 -31 43 -57 40 -68 -2 -9 0 -15 5
-11 11 6 32 -44 23 -57 -3 -5 -1 -9 3 -9 8 0 23 -56 37 -135 2 -11 11 -40 20
-65 9 -25 16 -47 16 -50 0 -3 -25 18 -55 47 -31 28 -86 72 -123 97 -37 25 -76
54 -87 63 -28 25 -65 79 -60 87 3 3 2 4 -2 1 -9 -7 -35 33 -28 45 3 6 -1 7 -9
4 -24 -9 -20 -35 25 -150 47 -120 61 -135 249 -294 65 -55 134 -122 155 -150
39 -53 61 -60 58 -19 -1 28 -5 399 -3 414 0 6 10 -10 22 -35 20 -43 21 -53 13
-235 -5 -104 -8 -224 -8 -265 l0 -75 -17 52 c-9 28 -24 63 -34 77 -9 15 -14
32 -10 39 4 7 4 9 -1 5 -5 -5 -31 13 -58 40 -109 103 -174 169 -199 202 l-27
35 -1 -32 c0 -31 48 -181 77 -238 9 -16 56 -87 105 -158 94 -135 136 -204 141
-234 2 -10 9 -31 16 -48 7 -16 13 -42 14 -57 3 -46 19 -26 38 48 32 131 48
180 74 235 14 30 23 46 20 36 -4 -15 -2 -16 17 -6 20 11 21 10 14 -31 -7 -48
-28 -84 -42 -72 -4 4 -3 0 3 -8 9 -12 2 -36 -28 -110 -21 -52 -39 -97 -39
-100 0 -3 -4 1 -9 9 -6 9 -13 -11 -21 -60 l-13 -74 -17 65 c-22 84 -54 152
-128 274 -34 54 -64 111 -67 127 -4 15 -12 33 -20 39 -35 29 -26 -127 16 -310
21 -87 39 -152 84 -298 25 -82 36 -214 15 -182 -8 12 -10 9 -10 -12 0 -16 5
-28 10 -28 6 0 10 -9 10 -20 0 -26 8 -25 36 5 13 14 21 25 18 25 -10 0 33 57
152 203 9 11 31 48 51 83 19 35 41 64 50 64 10 0 13 -6 9 -20 -3 -11 -9 -29
-12 -40 -3 -11 -13 -20 -22 -20 -10 0 -13 -3 -7 -8 6 -4 10 -13 9 -19 -1 -7
-2 -18 -3 -24 0 -5 -5 -7 -11 -4 -5 3 -7 0 -4 -8 3 -8 -3 -21 -13 -28 -10 -8
-18 -19 -18 -24 0 -16 -41 -65 -54 -65 -6 0 -11 -8 -11 -17 0 -9 -3 -13 -6
-10 -8 8 -41 -28 -49 -54 -4 -11 -11 -17 -16 -14 -5 4 -9 0 -9 -7 0 -17 -64
-80 -73 -73 -4 3 -5 2 -3 -1 3 -3 -7 -18 -21 -33 -14 -14 -38 -46 -54 -70 -35
-55 -36 -52 -4 24 32 78 32 145 0 305 -13 69 -25 151 -25 183 0 75 -20 76 -49
1 -20 -53 -40 -165 -57 -309 -3 -33 -8 -63 -10 -67 -2 -3 -6 -39 -9 -80 -10
-149 -39 -284 -73 -336 -10 -16 -12 -26 -4 -34 7 -7 32 5 83 40 41 27 112 73
159 102 46 29 90 59 98 66 7 8 16 14 20 14 4 0 21 14 39 30 18 17 37 30 42 30
6 0 11 4 11 8 0 5 8 17 18 28 47 52 120 192 150 284 25 78 24 197 -1 246 -15
29 -15 38 -1 105 23 109 24 207 3 304 -32 151 -41 171 -71 166 -5 0 -8 32 -8
72 -1 100 -18 169 -73 287 -28 61 -98 160 -113 160 -11 0 -15 -6 -11 -20 3
-11 2 -22 -2 -25 -4 -2 -15 20 -25 50 -21 67 -79 141 -150 194 -50 37 -126 64
-126 45z"/>
<path d="M1285 3458 c-22 -40 -40 -75 -40 -78 0 -3 -8 -26 -19 -50 -29 -71
-34 -83 -41 -110 -3 -14 -12 -49 -20 -78 -34 -121 -45 -360 -24 -509 20 -143
63 -282 131 -419 90 -183 250 -371 425 -500 149 -110 375 -206 568 -241 102
-19 353 -20 445 -3 64 12 133 32 140 40 3 3 32 14 65 24 33 10 102 38 154 62
51 24 100 44 108 44 44 0 265 180 355 288 109 132 127 159 183 265 60 114 104
237 131 367 31 153 20 558 -17 606 -5 5 -15 35 -23 65 -8 30 -19 68 -26 84
-21 56 -104 215 -112 215 -14 0 -9 -34 11 -71 27 -50 90 -254 95 -309 3 -25
10 -72 15 -105 16 -90 13 -205 -9 -353 -27 -182 -46 -241 -133 -419 l-49 -103
-84 0 c-49 0 -84 -4 -84 -10 0 -6 -40 -10 -100 -10 -60 0 -100 4 -100 10 0 7
-311 10 -913 10 l-912 0 -14 23 c-16 25 -59 111 -89 177 -11 25 -27 72 -36
105 -9 33 -23 83 -31 110 -55 187 -34 578 41 757 14 35 27 73 30 86 2 12 13
38 24 57 24 42 24 45 7 45 -7 0 -31 -33 -52 -72z m1459 -1404 c9 -3 16 -15 16
-25 0 -14 7 -19 29 -19 20 0 35 -8 45 -22 38 -53 4 -97 -73 -96 l-51 0 0 77
c0 88 3 97 34 85z m386 -82 l0 -79 -46 -1 c-72 -1 -104 44 -68 96 10 14 25 22
45 22 22 0 29 5 29 20 0 13 7 20 20 20 18 0 20 -7 20 -78z"/>
<path d="M557 3145 c-52 -110 -68 -352 -29 -465 29 -84 29 -85 8 -85 -60 0
-46 -201 24 -349 63 -131 150 -228 288 -321 119 -80 137 -92 187 -124 22 -14
42 -29 45 -32 6 -7 47 -29 54 -29 11 0 6 28 -14 73 -11 25 -17 52 -14 61 3 9
2 16 -4 16 -14 0 -28 93 -62 415 -18 168 -67 342 -91 318 -5 -5 -11 -50 -14
-101 -2 -51 -7 -97 -10 -102 -11 -17 -35 -167 -35 -215 1 -27 9 -75 20 -105
10 -30 18 -56 17 -57 -1 0 -30 31 -65 70 -34 40 -102 117 -151 171 -57 64 -87
105 -83 114 3 9 1 13 -5 9 -11 -7 -55 52 -67 89 -7 24 1 54 16 54 6 0 5 -7 -2
-15 -11 -13 -10 -14 2 -10 9 4 24 -7 39 -26 13 -17 59 -77 103 -133 43 -56 85
-116 92 -133 8 -18 19 -33 25 -33 5 0 7 -6 3 -12 -5 -10 -4 -10 6 -1 8 8 13
47 14 120 2 93 7 125 39 231 76 250 96 340 98 435 1 43 5 64 10 56 5 -8 9 -9
9 -4 -1 14 -26 45 -37 45 -5 0 -15 -18 -22 -41 -7 -22 -28 -65 -48 -94 -20
-29 -34 -55 -32 -57 2 -1 -7 -18 -20 -37 -23 -32 -59 -101 -76 -146 -4 -11
-14 -47 -20 -80 -7 -33 -13 -53 -14 -44 -1 8 -16 54 -35 102 -23 58 -30 88
-22 91 7 3 7 5 -1 5 -22 2 -69 111 -78 181 0 3 -4 10 -8 17 -4 6 -1 14 5 17
10 5 10 7 1 12 -9 4 -13 33 -13 95 0 49 -4 89 -8 89 -5 0 -16 -16 -25 -35z"/>
<path d="M2428 2332 c-70 -46 -138 -109 -138 -128 0 -11 35 -14 205 -13 225 0
227 1 179 58 -25 30 -162 122 -180 120 -5 0 -35 -17 -66 -37z"/>
<path d="M1076 2232 c-3 -5 7 -66 23 -134 16 -67 39 -170 51 -228 12 -58 26
-109 30 -115 4 -5 10 -22 14 -37 3 -15 12 -33 19 -40 6 -8 32 -36 57 -63 40
-43 41 -45 10 -21 -19 15 -56 43 -83 63 -26 19 -44 40 -40 45 3 7 1 8 -5 4
-18 -11 -203 85 -200 103 2 12 -6 16 -29 16 -18 1 -46 11 -62 23 -17 12 -33
22 -36 22 -19 0 -99 80 -136 136 -49 73 -69 73 -50 -1 18 -71 74 -176 131
-245 57 -67 189 -177 232 -192 16 -6 26 -13 24 -17 -3 -4 3 -7 12 -8 9 -1 58
-15 107 -31 50 -17 115 -36 145 -41 30 -6 95 -20 144 -31 49 -11 91 -18 93
-16 3 2 -20 40 -51 83 -54 78 -130 236 -123 257 4 13 14 -2 98 -153 70 -124
112 -171 192 -214 28 -15 43 -26 32 -23 -11 3 -99 14 -195 26 -300 35 -394 61
-472 128 -50 44 -75 55 -82 37 -10 -28 121 -165 222 -232 103 -67 286 -111
420 -100 37 2 126 19 197 36 72 17 160 39 198 48 37 8 67 21 67 28 0 6 -17 17
-37 23 -21 6 -65 19 -97 28 -67 20 -122 59 -250 177 -167 153 -277 247 -290
247 -9 0 -13 -8 -10 -22 3 -13 -9 11 -26 52 -78 185 -224 414 -244 382z"/>
<path d="M3862 2186 c-18 -24 -32 -47 -32 -51 0 -3 -11 -21 -24 -38 -29 -40
-96 -161 -96 -176 0 -6 -11 -34 -24 -63 -13 -29 -31 -74 -40 -100 -41 -125
-121 -267 -171 -307 -24 -18 -24 -20 -7 -26 11 -3 53 3 93 14 41 11 106 25
144 31 39 7 83 16 99 21 15 5 32 6 37 3 5 -3 9 0 9 5 0 6 3 10 8 9 4 -1 17 3
30 10 12 7 22 8 22 3 0 -5 10 -4 24 2 13 7 22 15 20 19 -2 3 12 12 31 19 19 7
35 17 35 22 0 5 8 6 17 3 10 -4 14 -4 10 0 -4 4 19 26 51 49 101 74 210 215
242 313 7 23 17 42 22 42 5 0 8 17 6 38 -4 45 -17 47 -38 8 -31 -59 -65 -96
-90 -96 -11 0 -17 -7 -16 -17 0 -12 -7 -19 -21 -21 -13 -2 -23 -9 -23 -15 0
-17 -72 -62 -215 -137 -66 -34 -150 -84 -188 -111 l-68 -49 40 49 c65 83 78
120 121 332 3 19 10 41 14 47 4 6 9 26 11 44 2 18 8 51 14 73 7 22 13 52 16
68 7 43 -26 34 -63 -17z"/>
<path d="M3594 1793 c-16 -16 -65 -59 -108 -98 -44 -38 -93 -83 -111 -100
-156 -147 -199 -176 -317 -212 -48 -15 -88 -33 -88 -39 0 -17 364 -104 462
-111 126 -9 257 18 390 81 57 28 218 170 218 194 0 6 5 12 10 12 6 0 10 11 10
25 0 23 -23 36 -32 18 -1 -5 -20 -21 -42 -37 -31 -23 -40 -26 -48 -15 -8 11
-9 11 -5 -3 6 -18 -18 -32 -35 -21 -7 3 -8 1 -4 -5 4 -7 2 -13 -3 -13 -12 -2
-26 -5 -38 -9 -5 -1 -11 -2 -15 -1 -5 0 -8 -3 -8 -8 0 -11 -183 -39 -370 -57
-30 -3 -73 -9 -95 -14 -62 -15 -64 -12 -12 15 27 14 53 22 59 19 6 -4 8 -3 5
3 -3 5 15 32 42 60 26 27 58 71 71 99 13 27 27 51 31 54 7 5 89 175 89 185 0
14 -30 2 -56 -22z"/>
<path d="M2075 1314 c-405 -144 -414 -147 -510 -148 -96 -1 -161 13 -237 51
-110 54 -104 14 10 -71 146 -109 263 -143 431 -125 87 10 192 57 370 168 117
72 171 95 219 89 23 -3 18 -7 -38 -36 -142 -75 -360 -242 -360 -276 0 -13 72
-76 86 -76 4 0 55 46 113 102 141 135 147 140 214 183 102 64 116 67 173 41
74 -35 167 -108 287 -225 94 -91 110 -104 125 -93 9 7 29 20 44 30 16 9 28 24
28 33 0 21 -99 115 -180 170 -36 24 -66 47 -68 52 -2 4 -9 7 -17 7 -7 0 -39
16 -71 35 -95 56 -93 54 -59 54 42 1 100 -16 139 -42 19 -12 49 -31 67 -42 19
-11 59 -34 89 -53 249 -150 428 -168 633 -64 93 47 212 162 168 162 -5 0 -39
-13 -76 -30 -94 -42 -173 -54 -270 -41 -43 6 -84 16 -90 21 -7 5 -14 7 -18 4
-3 -3 -16 0 -29 8 -12 7 -27 13 -33 14 -5 0 -23 6 -38 12 -16 7 -35 12 -43 12
-8 0 -81 26 -162 57 -140 55 -151 57 -237 57 -53 0 -119 -7 -160 -17 -65 -17
-75 -17 -145 -2 -41 9 -109 18 -150 21 -70 4 -84 2 -205 -42z"/>
<path d="M2637 728 c1 -29 2 -63 3 -75 0 -20 5 -23 43 -23 61 0 89 22 85 67
-4 44 -36 71 -93 79 l-40 5 2 -53z"/>
<path d="M2057 764 c-13 -13 -7 -89 9 -112 11 -16 25 -22 54 -22 47 0 60 18
60 81 0 60 11 41 13 -23 2 -47 5 -53 25 -56 18 -3 22 1 22 24 l0 27 21 -27
c11 -14 29 -26 40 -26 17 0 19 7 19 62 0 74 17 68 22 -7 3 -42 6 -50 23 -50
17 0 20 8 23 46 3 40 6 46 22 42 15 -4 19 -13 17 -45 -1 -43 18 -65 41 -45 9
7 12 24 9 47 -4 30 -1 37 19 47 24 11 24 11 22 -40 l-3 -52 41 -5 c52 -7 64
-3 64 21 0 14 -7 19 -27 20 -28 1 -28 1 -3 8 20 5 25 14 27 48 l3 40 -245 2
-244 1 -3 -47 c-4 -64 -26 -69 -30 -6 -2 34 -8 49 -18 51 -9 1 -19 0 -23 -4z"/>
</g>
</svg>
